<svg width="70" height="70" viewBox="0 0 70 70" fill="none" xmlns="http://www.w3.org/2000/svg">
<rect x="0.5" y="0.5" width="69" height="69" rx="34.5" stroke="white" stroke-opacity="0.3"/>
<path d="M28.9844 34.7031H25.2344V30.9531H28.9844V34.7031ZM36.4844 30.9531H32.7344V34.7031H36.4844V30.9531ZM43.9844 30.9531H40.2344V34.7031H43.9844V30.9531ZM28.9844 36.5781H25.2344V40.3281H28.9844V36.5781ZM36.4844 36.5781H32.7344V40.3281H36.4844V36.5781ZM43.9844 36.5781H40.2344V40.3281H43.9844V36.5781ZM28.9844 42.2031H25.2344V45.9531H28.9844V42.2031ZM36.4844 42.2031H32.7344V45.9531H36.4844V42.2031ZM27.1094 25.3281C28.1448 25.3281 28.9844 24.4895 28.9844 23.4531V21.5781C28.9844 20.5417 28.1448 19.7031 27.1094 19.7031C26.0739 19.7031 25.2344 20.5418 25.2344 21.5781V23.4531C25.2344 24.4895 26.0739 25.3281 27.1094 25.3281ZM49.6094 23.4531V49.7031H19.6094V23.4531H24.2969C24.2969 25.004 25.5585 26.2656 27.1094 26.2656C28.6603 26.2656 29.9219 25.004 29.9219 23.4531H39.2969C39.2969 25.004 40.5585 26.2656 42.1094 26.2656C43.6603 26.2656 44.9219 25.004 44.9219 23.4531H49.6094ZM47.7344 29.0781H21.4844V47.8281H47.7344V29.0781ZM42.1094 25.3281C43.1458 25.3281 43.9844 24.4895 43.9844 23.4531V21.5781C43.9844 20.5417 43.1458 19.7031 42.1094 19.7031C41.073 19.7031 40.2344 20.5418 40.2344 21.5781V23.4531C40.2344 24.4895 41.073 25.3281 42.1094 25.3281Z" fill="#E1E1E1"/>
</svg>
