<svg width="32" height="34" viewBox="0 0 32 34" fill="none" xmlns="http://www.w3.org/2000/svg">
<path d="M8.05167e-06 18.7H32V32.3034C32 33.2401 31.2089 34 30.2347 34H1.76534C1.5329 33.9996 1.30282 33.9553 1.08828 33.8698C0.873726 33.7843 0.678908 33.6591 0.514958 33.5016C0.351009 33.344 0.221142 33.1571 0.132784 32.9515C0.044425 32.7459 -0.000693253 32.5257 8.05167e-06 32.3034V18.7ZM8.05167e-06 1.6966C8.05167e-06 0.7599 0.791119 0 1.76534 0H30.2347C31.2089 0 32 0.7582 32 1.6966V15.3H8.05167e-06V1.6966ZM10.6667 5.1V8.5H21.3333V5.1H10.6667ZM10.6667 23.8V27.2H21.3333V23.8H10.6667Z" fill="#E1E1E1"/>
</svg>
